# Blender 3.4.1
# www.blender.org
mtllib brick_wall_small.mtl
o brick_wall_small
v 0.000000 0.000000 0.100000
v 0.000000 0.000000 0.100000
v 0.000000 0.000000 0.100000
v 2.000000 0.000000 0.100000
v 2.000000 0.000000 0.100000
v 2.000000 0.000000 0.100000
v 0.000000 0.000000 -0.100000
v 0.000000 0.000000 -0.100000
v 0.000000 0.000000 -0.100000
v 2.000000 0.000000 -0.100000
v 2.000000 0.000000 -0.100000
v 2.000000 0.000000 -0.100000
v 0.000000 2.000000 -0.100000
v 0.000000 2.000000 -0.100000
v 0.000000 2.000000 -0.100000
v 0.000000 2.000000 -0.100000
v 0.000000 2.000000 0.100000
v 0.000000 2.000000 0.100000
v 0.000000 2.000000 0.100000
v 0.000000 2.000000 0.100000
v 0.000000 2.000000 -0.100000
v 0.000000 2.000000 -0.100000
v 0.000000 2.000000 -0.100000
v 0.000000 2.000000 0.100000
v 0.000000 2.000000 0.100000
v 0.000000 2.000000 0.100000
v 0.000000 2.000000 -0.100000
v 0.000000 2.000000 -0.100000
v 0.000000 2.000000 0.100000
v 0.000000 2.000000 0.100000
v 2.000000 2.000000 0.100000
v 2.000000 2.000000 0.100000
v 2.000000 2.000000 0.100000
v 2.000000 2.000000 0.100000
v 2.000000 2.000000 -0.100000
v 2.000000 2.000000 -0.100000
v 2.000000 2.000000 -0.100000
v 2.000000 2.000000 -0.100000
v 0.000000 2.000000 -0.100000
v 0.000000 2.000000 -0.100000
v 0.000000 2.000000 0.100000
v 0.000000 2.000000 0.100000
v 2.000000 2.000000 0.100000
v 2.000000 2.000000 0.100000
v 2.000000 2.000000 -0.100000
v 2.000000 2.000000 -0.100000
v 0.000000 2.000000 -0.151109
v 0.000000 2.000000 -0.151109
v 0.000000 2.000000 -0.151109
v 0.000000 2.000000 0.145947
v 0.000000 2.000000 0.145947
v 0.000000 2.000000 0.145947
v 2.000000 2.000000 0.145947
v 2.000000 2.000000 0.145947
v 2.000000 2.000000 0.145947
v 2.000000 2.000000 -0.151109
v 2.000000 2.000000 -0.151109
v 2.000000 2.000000 -0.151109
v 0.000000 2.036520 -0.148528
v 0.000000 2.036520 -0.148528
v 0.000000 2.036520 -0.148528
v 0.000000 2.036520 -0.148528
v 0.000000 2.036520 0.148528
v 0.000000 2.036520 0.148528
v 0.000000 2.036520 0.148528
v 0.000000 2.036520 0.148528
v 2.000000 2.036520 0.145947
v 2.000000 2.036520 0.145947
v 2.000000 2.036520 0.145947
v 2.000000 2.036520 0.145947
v 2.000000 2.036520 -0.148528
v 2.000000 2.036520 -0.148528
v 2.000000 2.036520 -0.148528
v 2.000000 2.036520 -0.148528
v 0.000000 2.081083 -0.038964
v 0.000000 2.081083 -0.038964
v 0.000000 2.081083 -0.038964
v 0.000000 2.081083 0.038964
v 0.000000 2.081083 0.038964
v 0.000000 2.081083 0.038964
v 2.000000 2.081083 0.038964
v 2.000000 2.081083 0.038964
v 2.000000 2.081083 0.038964
v 2.000000 2.081083 -0.038964
v 2.000000 2.081083 -0.038964
v 2.000000 2.081083 -0.038964
vn -0.0000 -1.0000 -0.0000
vn -0.0000 1.0000 -0.0000
vn -0.0000 -0.0000 -1.0000
vn -0.0000 -0.0000 1.0000
vn 1.0000 -0.0000 -0.0000
vn -1.0000 -0.0000 -0.0000
vn -0.0000 0.0705 -0.9975
vn 0.0006 -0.0353 0.9994
vn -0.0000 0.9263 -0.3768
vn 0.0002 0.9247 0.3806
vt -0.004950 1.010661
vt 0.865535 0.000000
vt 2.004406 1.007394
vt 0.995207 1.010661
vt 0.865535 0.403029
vt 2.104413 1.007394
vt 0.004211 1.010804
vt 0.905838 0.000000
vt 2.104413 1.007394
vt 1.004653 1.010804
vt 0.905838 0.403029
vt 2.004406 1.007394
vt 0.004210 0.011125
vt 0.016339 0.806060
vt -0.738857 0.008086
vt 2.104413 0.007332
vt -0.004947 0.010696
vt 0.016339 0.806060
vt -0.738856 1.259635
vt 2.004406 0.007332
vt 0.016339 0.806060
vt 0.965699 0.000000
vt -0.738857 0.008086
vt 0.016339 0.806060
vt 0.985258 0.000000
vt -0.738856 1.259635
vt 0.016339 0.806060
vt 0.965699 0.000000
vt 0.016339 0.806060
vt 0.985258 0.000000
vt 0.995209 0.010696
vt 0.513649 1.259635
vt 0.985258 0.403029
vt 2.104413 0.007332
vt 1.004652 0.011125
vt 0.513647 0.008086
vt 0.965699 0.403029
vt 2.004406 0.007332
vt 0.009616 0.069931
vt 0.360171 0.273700
vt 0.009616 0.006004
vt 0.174246 0.273699
vt 0.368991 0.006004
vt 0.357729 0.266906
vt 0.368991 0.069931
vt 0.171805 0.266906
vt 1.108184 0.245086
vt 0.009616 -0.001178
vt 0.407683 0.273700
vt 0.009616 0.069931
vt 1.108184 0.245087
vt 0.131532 0.273700
vt 0.368991 0.069931
vt -0.590554 0.245088
vt 0.400443 0.266906
vt -0.590554 0.245087
vt 0.368991 -0.001177
vt 0.124292 0.266906
vt 1.108184 0.004308
vt -0.462894 0.002948
vt 0.115415 0.008763
vt 0.405284 0.010826
vt -0.462894 -0.005611
vt 1.108185 0.004458
vt 0.129133 0.010826
vt 0.363773 0.008763
vt 0.865444 -0.005611
vt -0.590555 0.005058
vt 0.117573 0.008763
vt 0.400443 0.004033
vt -0.590554 0.004309
vt 0.865444 0.002949
vt 0.126692 0.004032
vt 0.363773 0.008763
vt -0.462894 0.599902
vt -0.649705 0.799425
vt 0.207017 0.297237
vt -0.649705 0.351550
vt -0.462894 0.591343
vt 0.272171 0.297237
vt 0.862933 0.351550
vt 0.865444 0.591343
vt 0.207017 0.297237
vt 0.865444 0.599902
vt 0.862933 0.799424
vt 0.272171 0.297237
s 0
usemtl brick
f 2/2/1 8/8/1 11/11/1
f 2/2/1 11/11/1 5/5/1
s 1
f 19/19/2 32/32/2 26/26/2
s 0
f 10/10/3 7/7/3 13/13/3
f 10/10/3 13/13/3 35/35/3
f 1/1/4 4/4/4 31/31/4
f 1/1/4 31/31/4 17/17/4
f 6/6/5 12/12/5 38/38/5
f 6/6/5 38/38/5 34/34/5
f 9/9/6 3/3/6 20/20/6
f 9/9/6 20/20/6 16/16/6
s 1
f 14/14/2 18/18/2 24/24/2
f 14/14/2 24/24/2 21/21/2
f 36/36/2 15/15/2 23/23/2
f 21/21/2 24/24/2 29/29/2
f 21/21/2 29/29/2 27/27/2
f 37/37/2 22/22/2 28/28/2
f 25/25/2 33/33/2 30/30/2
s 0
usemtl concrete
f 56/56/7 47/47/7 59/59/7
f 56/56/7 59/59/7 71/71/7
f 45/45/1 39/39/1 48/48/1
f 45/45/1 48/48/1 57/57/1
f 41/41/1 43/43/1 53/53/1
f 41/41/1 53/53/1 50/50/1
f 69/69/5 74/74/5 86/86/5
f 69/69/5 86/86/5 83/83/5
s 1
f 51/51/8 54/54/8 68/68/8
f 51/51/8 68/68/8 64/64/8
s 0
f 78/78/2 81/81/2 85/85/2
f 78/78/2 85/85/2 76/76/2
f 61/61/6 66/66/6 80/80/6
f 61/61/6 80/80/6 77/77/6
f 72/72/9 60/60/9 75/75/9
f 72/72/9 75/75/9 84/84/9
s 1
f 63/63/10 67/67/10 82/82/10
f 63/63/10 82/82/10 79/79/10
s 0
f 42/42/6 52/52/6 65/65/6
f 65/65/6 62/62/6 49/49/6
f 40/40/6 42/42/6 65/65/6
f 65/65/6 49/49/6 40/40/6
f 46/46/5 58/58/5 73/73/5
f 73/73/5 70/70/5 55/55/5
f 44/44/5 46/46/5 73/73/5
f 73/73/5 55/55/5 44/44/5
